PathFileType	4	(X/Y/Z)	W12_1_OpenSim.trc																																																																																																																						
DataRate	CameraRate	NumFrames	NumMarkers	Units	OrigDataRate	OrigDataStartFrame	OrigNumFrames																																																																																																																		
100	100	4	40	mm	100	751	3000																																																																																																																		
Frame#	Time	R.ASIS			R.PSIS			S2			L.PSIS			L.ASIS			R.TH1			R.TH2			R.TH3			R.MKnee			R.Knee			R.SH1			R.SH2			R.SH3			R.SH4			R.Ankle			R.MAnkle			R.Heel			R.MT5			R.MT1			L.TH1			L.TH2			L.TH3			L.TH4			L.MKnee			L.Knee			L.SH1			L.SH2			L.SH3			L.Ankle			L.MAnkle			L.Heel			L.MT5			L.MT1			R.Acr			L.Acr			C7			T10			Clav			Sternum			R.Back		
		X1	Y1	Z1	X2	Y2	Z2	X3	Y3	Z3	X4	Y4	Z4	X5	Y5	Z5	X6	Y6	Z6	X7	Y7	Z7	X8	Y8	Z8	X9	Y9	Z9	X10	Y10	Z10	X11	Y11	Z11	X12	Y12	Z12	X13	Y13	Z13	X14	Y14	Z14	X15	Y15	Z15	X16	Y16	Z16	X17	Y17	Z17	X18	Y18	Z18	X19	Y19	Z19	X20	Y20	Z20	X21	Y21	Z21	X22	Y22	Z22	X23	Y23	Z23	X24	Y24	Z24	X25	Y25	Z25	X26	Y26	Z26	X27	Y27	Z27	X28	Y28	Z28	X29	Y29	Z29	X30	Y30	Z30	X31	Y31	Z31	X32	Y32	Z32	X33	Y33	Z33	X34	Y34	Z34	X35	Y35	Z35	X36	Y36	Z36	X37	Y37	Z37	X38	Y38	Z38	X39	Y39	Z39	X40	Y40	Z40
751	7.5	945.6305	1060.5299	-364.2853	748.574	1065.1652	-453.195	740.6107	1058.6963	-498.0921	740.3681	1062.1572	-548.2057	914.4874	1052.1843	-659.3538	912.3419	725.9152	-350.3919	831.8062	727.7004	-334.3542	827.8777	618.2324	-350.865	833.6368	499.0414	-483.5608	844.8364	499.1432	-367.0357	823.9243	331.7926	-369.8192	803.4271	223.2264	-391.8768	745.1143	344.054	-349.1679	728.8034	232.6606	-363.693	710.0942	77.3106	-382.6671	745.6763	94.0801	-477.2634	648.7913	37.8194	-439.0971	823.5221	37.6185	-354.9038	870.9302	38.6233	-443.9766	990.0465	798.9772	-688.6352	1030.5552	698.3483	-690.4268	914.2734	764.3018	-696.1493	958.4177	663.8086	-690.398	1082.9299	540.7448	-578.3918	1061.2634	550.1363	-690.2264	1054.2684	415.0249	-709.5732	974.4188	426.8052	-698.2473	962.0309	318.2333	-692.9815	990.363	109.9309	-703.4535	1032.9149	117.1572	-610.5069	929.4462	77.7804	-640.0089	1089.3822	48.5749	-731.0399	1140.9999	59.0434	-637.1617	916.8679	1463.8353	-364.6739	838.6714	1442.0409	-676.9398	823.0762	1493.3787	-515.4938	786.2259	1169.1216	-498.6739	955.8317	1394.9968	-536.7678	981.9969	1250.8793	-523.1088	763.2086	1401.6873	-410.0384
752	7.51	945.1718	1058.6571	-364.6148	748.3752	1064.0477	-453.7355	740.463	1057.6255	-498.6394	740.2813	1061.0889	-548.7531	914.3196	1050.314	-659.6247	908.4362	724.3253	-351.1031	828.1548	726.9285	-334.3045	822.8538	617.5474	-350.912	826.5685	498.2386	-483.7891	837.8423	498.2119	-367.2856	814.9475	331.08	-369.9355	793.2457	222.723	-392.0616	736.1418	344.2831	-349.3928	718.6772	233.0164	-363.903	698.362	77.6253	-382.8354	734.0618	94.1066	-477.4529	636.9316	38.2487	-439.2154	811.5888	37.5569	-354.879	858.9037	38.5481	-443.9643	988.3942	796.249	-688.5033	1028.4586	695.5391	-689.3928	912.3855	761.8726	-695.799	956.1735	661.23	-689.3419	1080.8971	538.3781	-577.2147	1059.4533	547.4669	-688.7989	1059.9257	413.3041	-709.5857	979.5434	419.7208	-698.15	974.1877	310.6084	-693.6866	1016.7818	104.1911	-706.0098	1058.6057	113.1154	-612.8756	958.0373	67.4807	-642.9606	1119.5443	49.746	-733.9467	1170.328	62.4288	-639.9504	918.2136	1462.599	-365.895	837.6946	1440.5413	-677.2141	823.6306	1491.8599	-516.1025	786.1923	1167.7612	-498.977	955.8619	1393.1511	-538.113	981.8998	1248.955	-523.9837	764.1398	1400.6027	-410.1591
753	7.52	944.8795	1056.679	-365.1268	748.3408	1062.7446	-454.3445	740.4842	1056.3579	-499.2599	740.3616	1059.8098	-549.3682	914.2427	1048.2572	-660.0251	904.6571	722.6775	-351.8738	824.651	726.098	-334.2939	817.9705	616.8359	-351.025	819.6238	497.4345	-484.0423	830.9643	497.2644	-367.5735	806.0296	330.375	-370.0768	783.0958	222.2399	-392.2728	727.2346	344.5469	-349.6399	708.6245	233.4052	-364.1213	686.658	77.9777	-382.9955	722.4674	94.1638	-477.6402	625.0837	38.7408	-439.3336	799.6429	37.4942	-354.8483	846.8758	38.4866	-443.9577	986.5592	792.8155	-688.3401	1025.984	691.9361	-688.2685	910.2804	758.9028	-695.4122	953.4748	658.0375	-688.2198	1078.1379	535.2549	-575.9101	1057.0525	544.1443	-687.3264	1064.9374	411.4981	-709.5004	984.3102	412.5716	-697.995	985.9815	303.3673	-694.313	1042.8221	99.6902	-708.4156	1083.7267	110.3228	-615.0756	986.5174	58.5408	-645.8561	1148.8949	52.5189	-736.6461	1198.6512	67.405	-642.4727	919.603	1461.1724	-367.195	836.9078	1438.8937	-677.6194	824.2527	1490.198	-516.8207	786.2171	1166.2499	-499.415	956.0359	1391.203	-539.4792	981.9049	1246.9315	-524.9681	765.1115	1399.3672	-410.4265
754	7.53	944.7377	1054.6122	-365.8255	748.4548	1061.223	-455.0322	740.6563	1054.8546	-499.9619	740.5946	1058.2783	-550.0601	914.259	1046.0339	-660.5588	901.0199	720.9719	-352.6667	821.2898	725.2248	-334.3215	813.2277	616.108	-351.1929	812.8178	496.6379	-484.3104	824.1926	496.3127	-367.8878	797.1688	329.685	-370.2321	772.9777	221.7926	-392.4914	718.4022	344.8498	-349.8996	698.635	233.8451	-364.3484	674.9824	78.3754	-383.1411	710.9049	94.2597	-477.8134	613.2471	39.3117	-439.4466	787.6825	37.4296	-354.8108	834.8479	38.449	-443.9578	984.6228	788.7535	-688.1553	1023.2606	687.6224	-687.1376	908.0813	755.4414	-695.0668	950.4656	654.2939	-687.1379	1074.7607	531.4539	-574.5107	1054.2267	540.2647	-685.873	1069.2943	409.6217	-709.3295	988.7076	405.4822	-697.7797	997.2684	296.6057	-694.8192	1068.1022	96.4129	-710.5301	1107.9163	108.8026	-617.0045	1014.4736	51.0289	-648.5333	1177.0065	56.7872	-739.0198	1225.5615	73.9012	-644.6248	921.0261	1459.5691	-368.5735	836.3301	1437.0978	-678.154	824.9398	1488.3932	-517.654	786.2858	1164.5851	-499.9976	956.3453	1389.1487	-540.8719	982.0182	1244.8037	-526.0489	766.1158	1397.9822	-410.8415
